<?xml version="1.0" encoding="utf-8"?>
<!-- Generator: Adobe Illustrator 22.1.0, SVG Export Plug-In . SVG Version: 6.00 Build 0)  -->
<svg version="1.1" id="Layer_1" xmlns="http://www.w3.org/2000/svg" xmlns:xlink="http://www.w3.org/1999/xlink" x="0px" y="0px"
	 viewBox="0 0 925.7 82.6" style="enable-background:new 0 0 925.7 82.6;" xml:space="preserve">
<style type="text/css">
	.st0{fill:#305BAD;}
</style>
<g>
	<polygon class="st0" points="0,80.6 14,80.6 14,48 48.6,48 48.6,35.3 14,35.3 14,14.7 50.7,14.7 50.7,2 0,2 	"/>
	<rect x="85.6" y="2" class="st0" width="14" height="78.6"/>
	<polygon class="st0" points="153,46.6 189,46.6 189,34 153,34 153,14.7 191,14.7 191,2 139,2 139,80.6 193,80.6 193,67.9 153,67.9 
			"/>
	<polygon class="st0" points="243,2 229,2 229,80.6 276.4,80.6 276.4,67.9 243,67.9 	"/>
	<path class="st0" d="M367.5,11.7c-3.7-3.3-8-5.7-12.8-7.3c-4.8-1.6-9.8-2.4-15-2.4h-31v78.6h29.3c4.7,0,9.6-0.8,14.5-2.4
		c4.9-1.6,9.4-4,13.4-7.2c4-3.2,7.3-7.3,9.9-12.2c2.6-4.9,3.8-10.7,3.8-17.5c0-6.7-1.1-12.4-3.3-17.4
		C374.2,19,371.2,14.9,367.5,11.7 M362.6,53.6c-1.7,3.4-3.9,6.1-6.8,8.2c-2.9,2.1-6.3,3.7-10.2,4.7c-3.9,1-8,1.5-12.4,1.5h-10.4
		V14.7h12.8c4.3,0,8.2,0.5,11.8,1.5c3.6,1,6.7,2.6,9.3,4.7c2.6,2.1,4.7,4.9,6.2,8.3c1.5,3.4,2.2,7.5,2.2,12.2
		C365.1,46.1,364.2,50.2,362.6,53.6"/>
	<path class="st0" d="M474.7,71.3c-3,1.8-6.4,3-10.1,3.7c-3.7,0.7-7.7,1-11.9,1c-5.1,0-9.7-0.9-13.8-2.7c-4.1-1.8-7.6-4.2-10.5-7.3
		c-2.9-3.1-5.1-6.8-6.7-11c-1.6-4.2-2.3-8.8-2.3-13.7c0-4.9,0.8-9.4,2.3-13.7c1.6-4.2,3.8-7.9,6.7-11c2.9-3.1,6.4-5.6,10.5-7.3
		c4.1-1.8,8.7-2.7,13.8-2.7c2.1,0,4.3,0.2,6.5,0.7c2.2,0.5,4.3,1.1,6.4,2c2,0.9,3.9,1.9,5.7,3.1c1.7,1.2,3.2,2.5,4.4,3.9l5.3-5.5
		C473.9,3.6,464.5,0,452.8,0c-6,0-11.5,1-16.5,3.1c-5,2.1-9.3,4.9-12.8,8.6c-3.6,3.7-6.3,8-8.3,13c-2,5-3,10.5-3,16.5
		c0,6,1,11.5,3,16.6c2,5.1,4.8,9.4,8.3,13.1c3.6,3.7,7.8,6.5,12.8,8.5c5,2,10.5,3.1,16.5,3.1c5.1,0,10.1-0.5,15-1.6
		c4.9-1.1,9.7-2.9,14.3-5.5V45.3h-7.3V71.3z"/>
	<rect x="514.7" y="45.3" class="st0" width="7.3" height="35.3"/>
	<polygon class="st0" points="561.7,80.6 570,80.6 548.6,45.3 540.8,45.3 	"/>
	<path class="st0" d="M658.1,54.9c-1.6,4.2-3.8,7.9-6.7,11c-2.9,3.1-6.4,5.6-10.5,7.3c-4.1,1.8-8.7,2.7-13.8,2.7
		c-5.1,0-9.7-0.9-13.8-2.7c-4.1-1.8-7.6-4.2-10.5-7.3c-2.9-3.1-5.1-6.8-6.7-11c-1.1-3-1.8-6.3-2.1-9.7h-7.4
		c0.3,4.5,1.3,8.7,2.8,12.6c2,5.1,4.8,9.4,8.3,13.1c3.6,3.7,7.8,6.5,12.8,8.5c5,2,10.5,3.1,16.5,3.1c6,0,11.5-1,16.5-3.1
		c5-2,9.3-4.9,12.8-8.5c3.6-3.7,6.3-8,8.3-13.1c1.5-3.9,2.5-8.1,2.8-12.6h-7.4C659.9,48.7,659.2,51.9,658.1,54.9"/>
	<path class="st0" d="M596.2,27.6c1.6-4.2,3.8-7.9,6.7-11c2.9-3.1,6.4-5.6,10.5-7.3c4.1-1.8,8.7-2.7,13.8-2.7
		c5.1,0,9.7,0.9,13.8,2.7c4.1,1.8,7.6,4.2,10.5,7.3c2.9,3.1,5.1,6.8,6.7,11c1,2.8,1.7,5.7,2.1,8.8h7.4c-0.4-4.2-1.3-8.1-2.8-11.7
		c-2-5-4.8-9.4-8.3-13c-3.6-3.7-7.8-6.5-12.8-8.6C638.6,1,633.1,0,627.1,0c-6,0-11.5,1-16.5,3.1c-5,2.1-9.3,4.9-12.8,8.6
		c-3.6,3.7-6.3,8-8.3,13c-1.4,3.6-2.4,7.6-2.8,11.7h7.4C594.5,33.4,595.1,30.4,596.2,27.6"/>
	<path class="st0" d="M699.9,27.6c1.6-4.2,3.8-7.9,6.7-11c2.9-3.1,6.4-5.6,10.5-7.3c4.1-1.8,8.7-2.7,13.8-2.7
		c5.1,0,9.7,0.9,13.8,2.7c4.1,1.8,7.6,4.2,10.5,7.3c2.9,3.1,5.1,6.8,6.7,11c1,2.8,1.7,5.7,2.1,8.8h7.4c-0.4-4.2-1.3-8.1-2.8-11.7
		c-2-5-4.8-9.4-8.3-13c-3.6-3.7-7.8-6.5-12.8-8.6C742.3,1,736.8,0,730.8,0s-11.5,1-16.5,3.1c-5,2.1-9.3,4.9-12.8,8.6
		c-3.6,3.7-6.3,8-8.3,13c-1.4,3.6-2.4,7.6-2.8,11.7h7.4C698.1,33.4,698.8,30.4,699.9,27.6"/>
	<path class="st0" d="M761.8,54.9c-1.6,4.2-3.8,7.9-6.7,11c-2.9,3.1-6.4,5.6-10.5,7.3c-4.1,1.8-8.7,2.7-13.8,2.7
		c-5.1,0-9.7-0.9-13.8-2.7c-4.1-1.8-7.6-4.2-10.5-7.3c-2.9-3.1-5.1-6.8-6.7-11c-1.1-3-1.8-6.3-2.1-9.7h-7.4
		c0.3,4.5,1.3,8.7,2.8,12.6c2,5.1,4.8,9.4,8.3,13.1c3.6,3.7,7.8,6.5,12.8,8.5c5,2,10.5,3.1,16.5,3.1c6,0,11.5-1,16.5-3.1
		c5-2,9.3-4.9,12.8-8.5c3.6-3.7,6.3-8,8.3-13.1c1.5-3.9,2.5-8.1,2.8-12.6h-7.4C763.6,48.7,762.9,51.9,761.8,54.9"/>
	<polygon class="st0" points="821.1,70.9 811.6,45.3 804,45.3 817.2,80.6 824.5,80.6 837.9,45.3 830.6,45.3 	"/>
	<polygon class="st0" points="854.4,2 846.6,2 833.8,36.5 841.3,36.5 	"/>
	<polygon class="st0" points="795.8,2 787.9,2 800.7,36.5 808.4,36.5 	"/>
	<polygon class="st0" points="875.9,45.3 875.9,80.6 925.7,80.6 925.7,73.9 883.2,73.9 883.2,45.3 	"/>
	<polygon class="st0" points="883.2,8.7 924,8.7 924,2 875.9,2 875.9,36.5 883.2,36.5 	"/>
	<path class="st0" d="M563.3,22.5c0-2.5-0.3-4.7-0.9-6.6c-0.2-0.7-0.5-1.3-0.7-1.9c-1-2.1-2.2-3.9-3.7-5.4c-0.2-0.2-0.3-0.4-0.5-0.5
		c-1.7-1.6-3.6-2.7-5.8-3.6c-2.1-0.8-4.3-1.4-6.3-1.8c-2.1-0.4-4-0.6-5.8-0.7C537.8,2,536.4,2,535.3,2h-20.6v6.6v27.8h7.3v0V8.7
		h15.5c3.8,0,7,0.5,9.4,1.4c2.4,1,4.3,2.1,5.6,3.6c1.3,1.4,2.2,2.9,2.7,4.6c0.5,1.6,0.7,3,0.7,4.3c0,0,0,0.1,0,0.1
		c0,0.9-0.1,1.9-0.3,2.8c-0.2,1.4-0.7,2.7-1.3,3.9c-0.8,1.6-1.8,3.2-2.8,4.7c-0.6,0.8-1.2,1.6-1.9,2.5h0.2h8h0.2
		c0,0,0.1-0.1,0.1-0.2c0.1-0.1,0.2-0.2,0.3-0.3c1.1-1.2,2-2.5,2.8-4c0.4-0.8,0.7-1.6,1-2.5c0.6-2,0.9-4.3,0.9-6.9
		C563.3,22.6,563.3,22.6,563.3,22.5"/>
</g>
</svg>